<svg width="860" height="860" viewBox="0 0 860 860" fill="none" xmlns="http://www.w3.org/2000/svg">
<circle cx="430" cy="430" r="430" fill="white"/>
<g filter="url(#filter0_f)">
<circle cx="429.509" cy="430" r="393.143" fill="#1B1B1B" fill-opacity="0.5"/>
</g>
<path d="M279.131 793.166C325.58 812.48 376.53 823.143 429.971 823.143C483.412 823.143 534.363 812.48 580.811 793.166L569.985 793.114C558.254 793.057 546.541 792.161 534.938 790.431L444.404 776.935C418.264 773.038 391.666 773.384 365.636 777.96L279.131 793.166Z" fill="#EF9786"/>
<path d="M580.831 793.166C624.471 775.02 664.136 749.237 698.16 717.486L588.617 725.609C564.58 727.391 540.412 725.627 516.889 720.374L458.984 707.442C423.399 699.495 386.491 699.566 350.937 707.652L299.203 719.418C271.934 725.619 243.807 727.121 216.034 723.857L161.822 717.486C195.846 749.237 235.512 775.02 279.151 793.166L365.52 777.981C391.626 773.392 418.303 773.056 444.516 776.988L534.242 790.447C546.308 792.257 558.491 793.166 570.692 793.166H580.831Z" fill="#E18F82"/>
<path d="M698.165 717.486C727.222 690.369 752.165 658.899 771.953 624.114L742.495 618.229C713.187 612.373 683.058 611.913 653.585 616.872L592.73 627.11C565.844 631.634 538.393 631.651 511.501 627.162L446.611 616.329C419.031 611.724 390.867 611.861 363.333 616.734L300.571 627.84C272.247 632.853 243.262 632.853 214.937 627.84L137.086 614.064C120.054 611.049 102.513 614.644 88.0393 624.114C107.827 658.899 132.77 690.369 161.828 717.486L221.817 724.554C245.647 727.362 269.759 726.664 293.387 722.483L362.524 710.248C390.586 705.283 419.297 705.236 447.374 710.111L522.216 723.105C542.076 726.553 562.286 727.545 582.389 726.056L698.165 717.486Z" fill="#CB807B"/>
<path d="M771.957 624.114C792.988 587.145 808.197 546.432 816.336 503.223L738.12 493.452C711.761 490.159 685.043 491.162 659.005 496.422L600.819 508.177C568.837 514.638 535.889 514.665 503.897 508.256L453.369 498.133C421.56 491.761 388.804 491.75 356.991 498.102L305.66 508.352C273.874 514.698 241.145 514.693 209.36 508.336L160.91 498.646C127.392 491.943 92.8446 492.306 59.4752 499.713L43.6637 503.223C51.803 546.432 67.0119 587.145 88.0431 624.114C102.151 614.676 119.435 611.243 136.079 614.571L209.604 629.276C241.228 635.601 273.791 635.606 305.417 629.292L356.991 618.994C388.804 612.642 421.56 612.652 453.369 619.025L503.897 629.147C535.889 635.556 568.837 635.53 600.819 629.069L649.882 619.157C681.854 612.698 714.792 612.669 746.776 619.073L771.957 624.114Z" fill="#B16E73"/>
<path d="M37.5529 406.411C37.0911 414.215 36.8569 422.08 36.8569 430C36.8569 455.022 39.1946 479.499 43.6635 503.223L59.2195 499.757C92.595 492.321 127.155 491.933 160.689 498.617L209.639 508.375C241.402 514.706 274.104 514.696 305.863 508.344L356.994 498.118C388.805 491.756 421.56 491.756 453.371 498.118L504.138 508.271C536.133 514.67 569.082 514.633 601.062 508.161L658.967 496.443C685.029 491.169 711.775 490.161 738.161 493.457L816.336 503.223C820.805 479.499 823.143 455.022 823.143 430C823.143 422.08 822.908 414.215 822.447 406.411L737.431 396.314C711.522 393.237 685.289 394.306 659.716 399.48L601.062 411.35C569.082 417.821 536.133 417.859 504.138 411.46L453.371 401.306C421.56 394.944 388.805 394.944 356.994 401.306L305.863 411.533C274.104 417.884 241.402 417.895 209.639 411.563L158.426 401.355C126.354 394.962 93.3287 395.035 61.2854 401.571L37.5529 406.411Z" fill="#945B6A"/>
<path d="M822.439 406.411C819.618 358.746 808.305 313.364 789.991 271.76L742.314 264.093C713.222 259.414 683.525 260.006 654.643 265.841L600.779 276.722C568.823 283.178 535.902 283.21 503.934 276.817L453.126 266.655C421.315 260.293 388.559 260.293 356.748 266.655L305.697 276.865C273.886 283.227 241.131 283.227 209.32 276.865L151.962 265.394C124.575 259.916 96.2062 262.12 69.9929 271.76C51.6789 313.364 40.3657 358.746 37.5449 406.411L61.5302 401.536C93.5742 395.023 126.596 394.972 158.66 401.385L209.32 411.517C241.131 417.879 273.886 417.879 305.697 411.517L356.748 401.306C388.559 394.944 421.315 394.944 453.126 401.306L503.934 411.468C535.902 417.862 568.823 417.83 600.779 411.374L659.753 399.46C685.301 394.299 711.509 393.235 737.391 396.31L822.439 406.411Z" fill="#774861"/>
<path d="M789.977 271.76C774.88 237.464 755.026 205.734 731.25 177.406C709.833 167.817 685.956 165.161 662.955 169.807L600.779 182.368C568.823 188.824 535.902 188.856 503.934 182.462L453.126 172.301C421.315 165.938 388.559 165.938 356.749 172.301L295.325 184.585C270.267 189.597 244.582 190.669 219.194 187.763L128.707 177.406C104.931 205.734 85.0765 237.464 69.9795 271.76C96.3595 264.135 124.14 262.681 151.172 267.509L211.723 278.325C241.978 283.729 272.979 283.409 303.116 277.381L356.749 266.655C388.559 260.293 421.315 260.293 453.126 266.655L503.934 276.816C535.902 283.21 568.823 283.178 600.779 276.722L654.64 265.841C683.525 260.006 713.223 259.414 742.317 264.094L789.977 271.76Z" fill="#5A3458"/>
<path d="M731.248 177.406C701.611 142.094 665.88 112.069 625.674 88.9486L600.677 93.9756C568.787 100.389 535.941 100.406 504.044 94.0271L453.125 83.8434C421.315 77.4813 388.559 77.4813 356.748 83.8434L284.487 98.2958C267.172 101.759 249.188 98.4108 234.279 88.9486C194.073 112.069 158.342 142.094 128.705 177.406L219.194 187.763C244.581 190.669 270.267 189.597 295.324 184.585L356.748 172.301C388.559 165.938 421.315 165.938 453.125 172.301L518.457 185.367C540.952 189.866 563.966 191.193 586.828 189.308L731.248 177.406Z" fill="#422450"/>
<path d="M429.961 36.8572C358.713 36.8572 291.892 55.8099 234.264 88.9486C249.183 98.4111 267.176 101.758 284.499 98.2933L356.748 83.8435C388.559 77.4813 421.315 77.4813 453.125 83.8435L504.039 94.0261C535.939 100.406 568.789 100.388 600.682 93.9727L625.659 88.9486C568.031 55.8099 501.209 36.8572 429.961 36.8572Z" fill="#2D164A"/>
<path d="M245.919 579.271C240.677 579.271 236.582 577.961 233.633 575.34C230.767 572.719 229.333 568.542 229.333 562.809V520.791H220.856V519.563L223.805 519.071C226.344 518.498 228.514 517.679 230.316 516.614C232.2 515.55 234.043 514.116 235.845 512.314L245.919 501.134H247.148L246.779 518.334H260.539V520.791H246.656V565.02C246.656 567.887 247.27 570.057 248.499 571.531C249.809 573.006 251.448 573.743 253.413 573.743C255.133 573.743 256.649 573.333 257.959 572.514C259.269 571.613 260.58 570.426 261.89 568.951L263.119 570.18C261.481 572.965 259.229 575.176 256.362 576.814C253.495 578.452 250.014 579.271 245.919 579.271ZM267.336 577.429V576.2L268.811 575.709C271.759 574.726 273.234 572.678 273.234 569.566V503.96C273.234 502.24 272.947 500.97 272.374 500.151C271.8 499.332 270.695 498.718 269.056 498.309L267.214 497.817V496.589L288.836 491.306L290.802 492.411L290.311 509.734V525.091C293.177 522.716 296.249 520.71 299.525 519.071C302.883 517.351 306.569 516.491 310.582 516.491C315.906 516.491 320.124 518.007 323.236 521.037C326.431 524.068 328.028 528.736 328.028 535.043V569.689C328.028 571.327 328.356 572.637 329.011 573.62C329.666 574.603 330.813 575.34 332.451 575.831L333.434 576.2V577.429H304.685V576.2L306.159 575.831C309.108 574.849 310.582 572.76 310.582 569.566V530.989C310.582 527.712 310.009 525.46 308.862 524.231C307.797 523.003 305.873 522.389 303.088 522.389C301.286 522.389 299.32 522.757 297.191 523.494C295.061 524.15 292.891 525.337 290.679 527.057V569.811C290.679 573.006 292.154 575.053 295.102 575.954L296.085 576.2V577.429H267.336ZM369.072 516.491C374.396 516.491 378.941 517.597 382.709 519.809C386.477 521.938 389.343 524.887 391.309 528.654C393.357 532.34 394.38 536.558 394.38 541.309C394.38 542.21 394.339 543.151 394.258 544.134C394.176 545.035 394.012 545.854 393.766 546.591H357.155C357.237 555.437 358.793 561.826 361.823 565.757C364.936 569.607 369.522 571.531 375.583 571.531C379.678 571.531 382.996 570.876 385.535 569.566C388.074 568.255 390.449 566.33 392.66 563.791L393.889 564.897C391.35 569.402 387.951 572.924 383.692 575.463C379.515 578.002 374.478 579.271 368.58 579.271C362.765 579.271 357.605 578.043 353.1 575.586C348.596 573.047 345.074 569.443 342.535 564.774C339.996 560.106 338.726 554.536 338.726 548.066C338.726 541.35 340.2 535.657 343.149 530.989C346.098 526.238 349.865 522.634 354.452 520.177C359.12 517.72 363.994 516.491 369.072 516.491ZM368.703 518.949C366.328 518.949 364.28 519.686 362.56 521.16C360.922 522.552 359.612 525.091 358.629 528.777C357.728 532.381 357.237 537.5 357.155 544.134H378.163C378.982 535.207 378.655 528.777 377.18 524.846C375.706 520.914 372.88 518.949 368.703 518.949ZM453.918 579.64C449.413 579.64 444.827 579.067 440.158 577.92C435.49 576.855 431.599 575.422 428.487 573.62L429.101 556.911H430.33L434.138 564.897C435.285 567.19 436.513 569.238 437.824 571.04C439.134 572.76 440.936 574.111 443.23 575.094C444.868 575.913 446.424 576.487 447.898 576.814C449.454 577.06 451.174 577.183 453.058 577.183C458.054 577.183 461.986 575.831 464.852 573.129C467.801 570.426 469.275 566.945 469.275 562.686C469.275 558.672 468.292 555.56 466.327 553.349C464.361 551.055 461.208 548.844 456.867 546.714L451.83 544.503C444.786 541.39 439.257 537.828 435.244 533.814C431.312 529.719 429.347 524.313 429.347 517.597C429.347 512.765 430.575 508.588 433.032 505.066C435.571 501.544 439.052 498.841 443.475 496.957C447.98 495.073 453.222 494.131 459.201 494.131C463.542 494.131 467.637 494.705 471.487 495.851C475.418 496.998 478.817 498.554 481.684 500.52L480.947 515.263H479.718L474.681 506.049C473.289 503.182 471.896 501.175 470.504 500.029C469.111 498.8 467.514 497.94 465.712 497.449C464.648 497.121 463.665 496.916 462.764 496.834C461.863 496.67 460.716 496.589 459.324 496.589C455.147 496.589 451.625 497.817 448.758 500.274C445.891 502.65 444.458 505.885 444.458 509.98C444.458 514.157 445.564 517.515 447.775 520.054C449.987 522.511 453.222 524.723 457.481 526.689L463.132 529.146C470.995 532.586 476.647 536.271 480.087 540.203C483.527 544.052 485.247 549.049 485.247 555.191C485.247 562.399 482.503 568.296 477.015 572.883C471.61 577.388 463.91 579.64 453.918 579.64ZM512.364 579.271C509.169 579.271 506.221 578.657 503.518 577.429C500.897 576.2 498.808 574.234 497.252 571.531C495.778 568.747 495.082 565.102 495.164 560.597L495.532 529.023C495.532 527.139 495.204 525.788 494.549 524.969C493.894 524.15 492.87 523.576 491.478 523.249L490.004 522.757V521.529L511.995 517.229L513.224 518.457L512.609 535.903V565.511C512.609 568.132 513.346 570.057 514.821 571.286C516.377 572.514 518.302 573.129 520.595 573.129C522.888 573.129 524.936 572.801 526.738 572.146C528.54 571.49 530.342 570.508 532.144 569.197L532.635 529.146C532.635 527.262 532.348 525.951 531.775 525.214C531.202 524.395 530.137 523.822 528.581 523.494L527.352 523.126V521.897L548.852 517.229L550.081 518.457L549.712 535.903V569.197C549.712 570.999 549.958 572.391 550.449 573.374C550.941 574.357 552.005 575.176 553.644 575.831L554.872 576.2V577.429L533.372 578.657L532.266 571.409C529.564 573.62 526.615 575.504 523.421 577.06C520.308 578.534 516.623 579.271 512.364 579.271ZM559.833 577.429V576.2L561.553 575.709C564.42 574.89 565.853 572.883 565.853 569.689V531.234C565.853 529.432 565.567 528.122 564.993 527.303C564.42 526.402 563.314 525.788 561.676 525.46L559.833 524.969V523.74L580.842 516.614L582.071 517.843L583.053 525.214C585.92 522.675 589.155 520.587 592.759 518.949C596.363 517.31 599.926 516.491 603.448 516.491C608.853 516.491 612.99 517.966 615.856 520.914C618.805 523.863 620.279 528.368 620.279 534.429V569.811C620.279 573.006 621.835 575.012 624.948 575.831L626.053 576.2V577.429H597.059V576.2L598.656 575.709C601.523 574.808 602.956 572.801 602.956 569.689V530.497C602.956 525.255 600.335 522.634 595.093 522.634C591.49 522.634 587.558 524.436 583.299 528.04V569.811C583.299 573.006 584.732 575.012 587.599 575.831L588.705 576.2V577.429H559.833Z" fill="white"/>
<path d="M423.938 467.224C418.178 467.224 412.83 466.229 407.893 464.241C403.025 462.253 399.082 459.236 396.065 455.19C393.048 451.076 391.54 445.968 391.54 439.865C391.54 434.791 393.014 430.403 395.962 426.7C398.911 422.929 403.093 420.597 408.51 419.706V419.397C404.19 416.175 402.031 412.164 402.031 407.364C402.031 402.838 403.676 399.204 406.967 396.461C410.259 393.719 414.784 392.347 420.544 392.347C424.658 392.347 428.121 393.273 430.932 395.124C433.743 396.907 435.149 399.547 435.149 403.044C435.149 405.238 434.498 407.124 433.195 408.701C431.961 410.278 430.281 411.066 428.155 411.066C426.852 411.066 425.721 410.724 424.761 410.038C423.87 409.352 423.424 408.769 423.424 408.289C423.424 408.221 423.732 407.912 424.349 407.364C424.967 406.815 425.515 406.164 425.995 405.41C426.544 404.587 426.818 403.661 426.818 402.633C426.818 400.644 426.098 399.067 424.658 397.901C423.287 396.667 421.538 396.05 419.413 396.05C416.121 396.05 413.55 397.044 411.699 399.033C409.916 401.021 409.025 403.49 409.025 406.438C409.025 411.444 411.116 415.078 415.298 417.34H418.693C419.79 417.34 420.51 417.478 420.853 417.752C421.264 417.958 421.504 418.643 421.572 419.809C421.572 420.495 421.401 421.077 421.058 421.557C420.715 422.037 420.235 422.277 419.618 422.277H416.018C411.562 422.689 408.167 424.437 405.836 427.523C403.573 430.608 402.442 434.174 402.442 438.219C402.442 442.608 403.47 446.448 405.528 449.739C407.585 453.03 410.43 455.567 414.064 457.35C417.767 459.133 421.95 460.024 426.612 460.024C431.618 460.024 436.212 458.996 440.394 456.938C444.577 454.813 447.903 451.933 450.371 448.299C452.84 444.596 454.074 440.448 454.074 435.854C454.074 431.877 452.977 428.414 450.782 425.466C448.588 422.517 445.571 421.043 441.731 421.043C439.743 421.043 437.789 421.626 435.869 422.792C434.018 423.889 433.092 425.466 433.092 427.523C433.092 428.62 433.366 429.58 433.915 430.403C434.532 431.157 435.423 431.637 436.589 431.843C438.372 432.048 439.812 431.705 440.909 430.814C442.006 429.923 442.623 429.443 442.76 429.374C443.103 429.443 443.514 429.923 443.994 430.814C444.543 431.637 444.817 432.597 444.817 433.694C444.817 435.751 444.097 437.362 442.657 438.528C441.286 439.694 439.572 440.276 437.515 440.276C434.909 440.276 432.818 439.248 431.241 437.191C429.664 435.065 428.875 432.357 428.875 429.066C428.875 424.129 430.178 420.357 432.783 417.752C435.389 415.146 438.475 413.398 442.04 412.506C445.606 411.546 450.234 410.724 455.925 410.038C460.931 409.558 464.599 408.941 466.93 408.187C468.439 407.638 469.673 406.884 470.633 405.924C471.661 404.895 472.176 403.764 472.176 402.53C472.176 400.473 470.907 399.273 468.37 398.93C466.587 398.724 465.147 399.067 464.05 399.958C462.953 400.85 462.336 401.33 462.199 401.398C461.788 401.33 461.308 400.781 460.759 399.753C460.211 398.724 460.039 397.559 460.245 396.256C460.519 394.336 461.342 392.896 462.713 391.936C464.085 390.976 465.696 390.496 467.547 390.496C469.056 390.496 470.324 390.736 471.353 391.216C472.999 391.97 474.198 393.17 474.953 394.816C475.707 396.461 476.084 398.278 476.084 400.267C476.084 403.97 474.884 407.227 472.484 410.038C470.153 412.781 466.999 414.906 463.022 416.415C459.045 417.855 454.657 418.575 449.857 418.575C455.754 423.58 458.702 429.374 458.702 435.957C458.702 442.265 457.159 447.785 454.074 452.516C451.057 457.247 446.908 460.881 441.629 463.418C436.349 465.955 430.452 467.224 423.938 467.224Z" fill="white"/>
<path d="M437.413 248.284C439.196 248.284 438.687 250.448 438.687 250.958C438.305 254.778 437.413 257.707 436.522 258.726C438.305 256.816 443.016 252.486 443.016 246.374C443.016 243.445 440.087 239.497 437.159 239.752C405.323 242.935 341.653 312.463 307.78 361.744C322.552 331.055 348.784 288.905 349.93 264.074C350.44 253.25 340.125 248.666 332.612 248.666C295.938 248.666 239.271 295.527 238.507 314.246C238.38 318.448 240.799 321.887 246.147 321.887C249.713 321.887 254.934 318.958 254.934 318.448C254.679 318.321 252.642 318.576 250.986 318.576C248.567 318.576 247.676 317.43 247.803 315.902C248.185 306.606 300.522 252.104 332.357 252.104C336.941 252.104 342.29 254.396 342.035 259.362C341.271 277.317 296.447 351.302 295.556 374.988C295.428 376.006 297.338 379.954 300.904 379.954C302.814 379.954 306.38 378.808 307.144 377.535C307.144 377.535 305.234 378.044 303.96 378.044C302.814 378.044 302.305 377.407 302.432 377.025C327.773 328.763 412.709 248.284 437.413 248.284ZM364.242 355.887C372.137 355.25 392.384 334.493 403.463 322.523C403.845 322.141 403.208 321.123 402.317 321.759C394.549 329.272 375.957 346.973 368.19 349.01C369.718 343.789 387.163 314.756 392.384 315.265C393.403 315.392 394.04 316.029 394.04 315.52C394.04 312.336 388.946 307.242 386.017 307.242C385.508 307.242 384.744 307.37 384.107 308.007C375.957 314.501 357.493 342.261 357.493 349.647C357.493 351.939 360.677 355.123 362.714 355.759C363.351 355.887 363.733 355.887 364.242 355.887ZM397.86 287.759C394.549 288.778 389.71 297.055 389.838 300.748C389.965 303.04 392.639 305.714 394.422 303.422C395.95 301.257 401.808 296.036 403.972 295.145C405.373 294.508 406.392 295.018 406.647 295.018C407.156 295.018 406.392 293.108 405.246 291.834C403.59 289.924 400.789 287.377 397.86 287.759ZM443.78 307.242C444.29 307.242 444.672 307.242 444.035 306.86C443.144 306.096 441.106 304.696 436.267 304.696C416.147 304.696 388.26 325.452 388.26 346.209C388.26 351.048 392.08 355.887 397.938 356.269C411.436 357.033 437.795 338.696 441.233 321.759C441.87 322.014 443.144 322.269 445.054 322.269C447.091 322.269 449.765 322.014 452.567 321.123C458.806 319.085 463.9 314.883 464.537 313.1C463.136 312.973 458.424 317.939 449.893 318.703C444.799 319.085 441.743 316.156 439.323 312.209C439.069 311.827 437.668 310.808 436.395 310.935C434.739 311.063 430.919 314.883 430.537 316.156C430.027 317.43 431.301 321.25 431.938 322.396C423.406 335.385 405.196 355.759 398.065 352.83C390.934 349.774 417.548 306.86 440.597 306.86C441.488 306.86 442.507 307.115 443.78 307.242ZM460.011 307.624C444.476 331.947 438.618 344.299 438.618 348.119C438.618 349.52 438.873 349.774 439 350.029C439.764 351.939 442.566 354.613 443.584 355.123C444.73 355.759 446.004 356.269 447.659 355.632C455.3 352.83 477.457 329.654 483.697 322.523C484.079 322.141 483.569 321.123 482.805 321.759C475.292 328.636 454.154 349.392 448.678 348.756C451.734 340.606 461.285 324.433 472.363 307.624C478.73 298.329 483.951 290.816 489.427 283.812C495.03 276.935 503.307 264.965 507.764 267.003C510.183 268.404 505.09 261.018 497.959 261.4C496.813 261.4 495.157 262.419 493.247 263.947C490.064 266.493 486.498 270.568 482.678 275.535C476.056 284.194 467.906 295.272 460.011 307.624ZM483.851 337.804C498.113 337.422 522.562 319.085 522.562 311.19C522.562 307.624 516.705 304.696 514.795 304.696C509.319 304.696 497.986 308.643 487.416 317.43C479.394 324.179 472.9 332.201 469.843 339.46C468.825 342.261 468.061 344.808 468.061 347.864C468.061 351.302 473.154 355.887 477.102 355.887C494.038 355.887 519.379 331.565 528.929 322.651C529.311 322.269 528.42 321.632 528.038 321.887C515.177 332.583 491.873 350.284 482.577 350.284C479.776 350.284 478.63 349.392 478.757 347.864C479.139 344.553 481.559 340.478 483.851 337.804ZM518.488 308.516C517.723 313.355 496.585 333.984 485.506 335.257C489.708 328.508 504.353 313.1 518.488 308.516ZM551.304 283.557C537.041 285.213 523.034 288.778 523.543 294.508C523.925 298.583 528.255 301.003 530.292 301.003C526.982 299.093 534.495 292.98 546.592 290.561C541.88 296.801 538.188 302.404 534.749 307.624C519.086 331.819 513.356 344.299 513.356 348.119C513.356 349.52 513.611 349.774 513.738 350.029C514.502 351.939 517.304 354.613 518.322 355.123C519.468 355.759 520.742 356.269 522.397 355.632C530.038 352.83 552.195 329.654 558.435 322.523C558.817 322.141 558.307 321.123 557.543 321.759C550.03 328.636 528.892 349.392 523.416 348.756C526.472 340.606 536.023 324.433 547.101 307.624C552.195 300.111 556.397 293.744 561.109 287.887C582.375 284.703 605.678 284.576 630.892 286.741C632.42 286.868 631.91 286.613 630.892 286.359C612.682 282.538 585.813 281.52 565.311 282.538C570.914 275.28 578.427 265.093 582.502 267.003C584.922 268.404 579.828 261.018 572.697 261.4C571.551 261.4 569.895 262.419 567.985 263.947C564.802 266.493 561.236 270.568 551.304 283.557Z" fill="white"/>
<circle cx="354.282" cy="429.494" r="4.89772" fill="white"/>
<circle cx="495.873" cy="429.494" r="4.89772" fill="white"/>
<defs>
<filter id="filter0_f" x="16.7086" y="17.2001" width="825.6" height="825.6" filterUnits="userSpaceOnUse" color-interpolation-filters="sRGB">
<feFlood flood-opacity="0" result="BackgroundImageFix"/>
<feBlend mode="normal" in="SourceGraphic" in2="BackgroundImageFix" result="shape"/>
<feGaussianBlur stdDeviation="9.82857" result="effect1_foregroundBlur"/>
</filter>
</defs>
</svg>
