<svg width="19" height="19" viewBox="0 0 30 30" fill="none" xmlns="http://www.w3.org/2000/svg">
<path d="M0.588226 10.2649V20.1513H7.03267L15.0882 28.3899V2.02625L7.03267 10.2649H0.588226ZM18.3104 0.708069V4.1683C22.9827 5.65125 26.366 9.93528 26.366 15.2081C26.366 20.4809 22.9827 24.7649 18.3104 26.2478V29.7081C24.7549 28.225 29.5882 22.2933 29.5882 15.2081C29.5882 8.12284 24.7549 2.19096 18.3104 0.708069Z" fill="#291449"/>
<path d="M23.1438 15.2081C23.1438 11.9796 21.1263 9.2331 18.3104 8.21521V9.996C20.2155 10.9216 21.5327 12.9075 21.5327 15.2081C21.5327 17.5086 20.2155 19.4946 18.3104 20.4201V22.2009C21.1263 21.183 23.1438 18.4365 23.1438 15.2081Z" fill="#291449"/>
</svg>
