<svg width="19" height="18" viewBox="0 0 19 18" fill="none" xmlns="http://www.w3.org/2000/svg">
<path d="M0.0305176 5.84427V11.8901H4.06105L9.09922 16.9282V0.806107L4.06105 5.84427H0.0305176ZM11.1145 0V2.11603C14.0366 3.0229 16.1527 5.64271 16.1527 8.86718C16.1527 12.0916 14.0366 14.7115 11.1145 15.6183V17.7344C15.145 16.8274 18.1679 13.2 18.1679 8.86718C18.1679 4.53435 15.145 0.906831 11.1145 0Z" fill="white"/>
<path d="M14.1374 8.86718C14.1374 6.89289 12.8756 5.21331 11.1145 4.59084V5.67984C12.306 6.24586 13.1298 7.46032 13.1298 8.86718C13.1298 10.274 12.306 11.4885 11.1145 12.0545V13.1435C12.8756 12.521 14.1374 10.8415 14.1374 8.86718Z" fill="white"/>
</svg>
